<svg width="69" height="69" viewBox="0 0 69 69" fill="none" xmlns="http://www.w3.org/2000/svg">
<path d="M66.7297 0.5H2.27026C1.29257 0.5 0.5 1.33455 0.5 2.36403V5.61817C0.5 6.64764 1.29257 7.4822 2.27026 7.4822H66.7297C67.7074 7.4822 68.5 6.64764 68.5 5.61817V2.36403C68.5 1.33455 67.7074 0.5 66.7297 0.5Z" stroke="#CCCCCC" stroke-miterlimit="10"/>
<path d="M18.9227 14.5273H2.27026C1.29257 14.5273 0.5 15.3619 0.5 16.3914V30.2715C0.5 31.301 1.29257 32.1355 2.27026 32.1355H18.9227C19.9004 32.1355 20.693 31.301 20.693 30.2715V16.3914C20.693 15.3619 19.9004 14.5273 18.9227 14.5273Z" stroke="#4FAA4B" stroke-miterlimit="10"/>
<path d="M66.0897 43.8989H49.4373C48.4596 43.8989 47.667 44.7335 47.667 45.763V59.6431C47.667 60.6726 48.4596 61.5071 49.4373 61.5071H66.0897C67.0674 61.5071 67.86 60.6726 67.86 59.6431V45.763C67.86 44.7335 67.0674 43.8989 66.0897 43.8989Z" stroke="#4FAA4B" stroke-miterlimit="10"/>
<path d="M66.0897 14.3486H49.4373C48.4596 14.3486 47.667 15.1832 47.667 16.2127V30.0928C47.667 31.1223 48.4596 31.9568 49.4373 31.9568H66.0897C67.0674 31.9568 67.86 31.1223 67.86 30.0928V16.2127C67.86 15.1832 67.0674 14.3486 66.0897 14.3486Z" stroke="#4FAA4B" stroke-miterlimit="10"/>
<path d="M35.6053 43.8989H18.9529C17.9752 43.8989 17.1826 44.7335 17.1826 45.763V59.6431C17.1826 60.6726 17.9752 61.5071 18.9529 61.5071H35.6053C36.583 61.5071 37.3756 60.6726 37.3756 59.6431V45.763C37.3756 44.7335 36.583 43.8989 35.6053 43.8989Z" stroke="#4FAA4B" stroke-miterlimit="10"/>
<path d="M42.826 24.1426H26.1736C25.1959 24.1426 24.4033 24.9771 24.4033 26.0066V30.2823C24.4033 31.3117 25.1959 32.1463 26.1736 32.1463H42.826C43.8037 32.1463 44.5963 31.3117 44.5963 30.2823V26.0066C44.5963 24.9771 43.8037 24.1426 42.826 24.1426Z" stroke="#4FAA4B" stroke-miterlimit="10"/>
<path d="M42.826 16.2124H26.1736C25.1959 16.2124 24.4033 17.047 24.4033 18.0764V22.3521C24.4033 23.3816 25.1959 24.2161 26.1736 24.2161H42.826C43.8037 24.2161 44.5963 23.3816 44.5963 22.3521V18.0764C44.5963 17.047 43.8037 16.2124 42.826 16.2124Z" stroke="#4FAA4B" stroke-miterlimit="10"/>
<path d="M66.7297 32.1357H2.27026C1.29257 32.1357 0.5 32.9703 0.5 33.9998V37.2539C0.5 38.2834 1.29257 39.1179 2.27026 39.1179H66.7297C67.7074 39.1179 68.5 38.2834 68.5 37.2539V33.9998C68.5 32.9703 67.7074 32.1357 66.7297 32.1357Z" stroke="#CCCCCC" stroke-miterlimit="10"/>
<path d="M66.7297 61.5176H2.27026C1.29257 61.5176 0.5 62.3521 0.5 63.3816V66.6357C0.5 67.6652 1.29257 68.4998 2.27026 68.4998H66.7297C67.7074 68.4998 68.5 67.6652 68.5 66.6357V63.3816C68.5 62.3521 67.7074 61.5176 66.7297 61.5176Z" stroke="#CCCCCC" stroke-miterlimit="10"/>
<path d="M10.2715 14.1592V27.7444" stroke="#4FAA4B" stroke-miterlimit="10"/>
<path d="M57.7686 14.1592V27.7444" stroke="#4FAA4B" stroke-miterlimit="10"/>
<path d="M57.7686 43.9727V57.5685" stroke="#4FAA4B" stroke-miterlimit="10"/>
<path d="M27.7241 43.9727V57.5685" stroke="#4FAA4B" stroke-miterlimit="10"/>
</svg>
