<svg width="43" height="45" viewBox="0 0 43 45" fill="none" xmlns="http://www.w3.org/2000/svg">
<g clip-path="url(#clip0_1_2289)">
<path d="M18.9181 35.1199H2.89663C1.46892 35.1199 0.311523 36.2651 0.311523 37.6777V42.1278C0.311523 43.5405 1.46892 44.6857 2.89663 44.6857H18.9181C20.3458 44.6857 21.5032 43.5405 21.5032 42.1278V37.6777C21.5032 36.2651 20.3458 35.1199 18.9181 35.1199Z" stroke="#4FAA4B" stroke-miterlimit="10"/>
<path d="M40.1095 35.1199H24.088C22.6603 35.1199 21.5029 36.2651 21.5029 37.6777V42.1278C21.5029 43.5405 22.6603 44.6857 24.088 44.6857H40.1095C41.5372 44.6857 42.6946 43.5405 42.6946 42.1278V37.6777C42.6946 36.2651 41.5372 35.1199 40.1095 35.1199Z" stroke="#4FAA4B" stroke-miterlimit="10"/>
<path fill-rule="evenodd" clip-rule="evenodd" d="M33.7369 5.36231L21.97 16.13C20.9609 17.1285 19.3226 17.1285 18.3135 16.13C17.3044 15.1315 17.3044 13.5105 18.3135 12.512L29.2021 0.875253C30.2112 -0.123241 32.2918 0.314371 33.3009 1.31286C34.31 2.31136 34.7523 4.36998 33.7432 5.36847L33.7369 5.36231Z" stroke="#4FAA4B" stroke-miterlimit="10"/>
<path d="M21.8457 25.554H29.5075C30.934 25.554 32.0927 26.7004 32.0927 28.1119V32.562C32.0927 33.9734 30.934 35.1198 29.5075 35.1198H13.4923C12.0659 35.1198 10.9072 33.9734 10.9072 32.562V31.1567" stroke="#4FAA4B" stroke-miterlimit="10"/>
<path d="M22.1448 15.8649C23.154 16.8634 26.0505 21.3505 25.0414 22.349L7.99214 30.5034C6.66533 31.243 5.34474 31.5018 4.33562 30.5034L3.79991 29.9733C2.79078 28.9748 3.02749 27.6743 3.79991 26.3553L12.0411 9.48569C13.0502 8.48719 17.6162 11.3841 18.6253 12.3826" stroke="#4FAA4B" stroke-miterlimit="10"/>
<path d="M20.8555 16.8141L22.039 17.9852" stroke="#4FAA4B" stroke-miterlimit="10"/>
<path d="M16.5879 12.3024L17.7714 13.4735" stroke="#4FAA4B" stroke-miterlimit="10"/>
</g>
<defs>
<clipPath id="clip0_1_2289">
<rect width="43" height="45" fill="white"/>
</clipPath>
</defs>
</svg>
