<svg width="35" height="46" viewBox="0 0 35 46" fill="none" xmlns="http://www.w3.org/2000/svg">
<g clip-path="url(#clip0_1_4062)">
<path d="M34.5332 41.7902V6.1563C34.5332 4.0813 32.7972 2.39917 30.6557 2.39917L4.345 2.39917C2.20353 2.39917 0.467533 4.0813 0.467533 6.1563V41.7902C0.467533 43.8652 2.20353 45.5474 4.345 45.5474H30.6557C32.7972 45.5474 34.5332 43.8652 34.5332 41.7902Z" stroke="#313B30" stroke-miterlimit="10"/>
<path d="M5.18555 28.9888H12.2584" stroke="#313B30" stroke-miterlimit="10"/>
<path d="M13.8184 28.9888H20.8912" stroke="#313B30" stroke-miterlimit="10"/>
<path d="M22.7422 28.9888H29.8151" stroke="#313B30" stroke-miterlimit="10"/>
<path d="M13.8184 25.3674H20.8912" stroke="#313B30" stroke-miterlimit="10"/>
<path d="M22.7422 25.3674H29.8151" stroke="#313B30" stroke-miterlimit="10"/>
<path d="M5.18555 32.8545H12.2584" stroke="#313B30" stroke-miterlimit="10"/>
<path d="M13.8184 32.8545H20.8912" stroke="#313B30" stroke-miterlimit="10"/>
<path d="M22.7422 32.8545H29.8151" stroke="#313B30" stroke-miterlimit="10"/>
<path d="M5.33594 36.1953H12.3995" stroke="#313B30" stroke-miterlimit="10"/>
<path d="M13.9688 36.1953H21.0323" stroke="#313B30" stroke-miterlimit="10"/>
<path d="M9.37109 0V5.46821" stroke="#313B30" stroke-miterlimit="10"/>
<path d="M25.6289 0V5.46821" stroke="#313B30" stroke-miterlimit="10"/>
</g>
<defs>
<clipPath id="clip0_1_4062">
<rect width="35" height="46" fill="white"/>
</clipPath>
</defs>
</svg>
