<svg width="17" height="16" viewBox="0 0 17 16" fill="none" xmlns="http://www.w3.org/2000/svg">
<path d="M1.86621 0.537476H3.19954L4.97288 9.85248C5.03793 10.1936 5.20666 10.4986 5.45002 10.7149C5.69338 10.9312 5.99615 11.0452 6.30621 11.0375H12.8262C13.1297 11.0369 13.4239 10.9199 13.6602 10.7059C13.8966 10.4918 14.061 10.1934 14.1262 9.85998L15.2262 4.28748H3.91288M6.49954 14.75C6.49954 15.1642 6.20107 15.5 5.83288 15.5C5.46469 15.5 5.16621 15.1642 5.16621 14.75C5.16621 14.3358 5.46469 14 5.83288 14C6.20107 14 6.49954 14.3358 6.49954 14.75ZM13.8329 14.75C13.8329 15.1642 13.5344 15.5 13.1662 15.5C12.798 15.5 12.4995 15.1642 12.4995 14.75C12.4995 14.3358 12.798 14 13.1662 14C13.5344 14 13.8329 14.3358 13.8329 14.75Z" stroke="#5AB356" stroke-linecap="round" stroke-linejoin="round"/>
</svg>
