<svg width="17" height="16" viewBox="0 0 17 16" fill="none" xmlns="http://www.w3.org/2000/svg">
<path d="M5.83337 15.5001C6.20156 15.5001 6.50003 15.1643 6.50003 14.7501C6.50003 14.3359 6.20156 14.0001 5.83337 14.0001C5.46518 14.0001 5.1667 14.3359 5.1667 14.7501C5.1667 15.1643 5.46518 15.5001 5.83337 15.5001Z" fill="#5AB356"/>
<path d="M13.1667 15.5001C13.5349 15.5001 13.8334 15.1643 13.8334 14.7501C13.8334 14.3359 13.5349 14.0001 13.1667 14.0001C12.7985 14.0001 12.5 14.3359 12.5 14.7501C12.5 15.1643 12.7985 15.5001 13.1667 15.5001Z" fill="#5AB356"/>
<path d="M1.8667 0.537598H3.20003L4.97337 9.8526C5.03842 10.1937 5.20715 10.4987 5.45051 10.715C5.69387 10.9313 5.99664 11.0454 6.3067 11.0376H12.8267C13.1301 11.037 13.4244 10.9201 13.6607 10.706C13.8971 10.4919 14.0615 10.1935 14.1267 9.8601L15.2267 4.2876H3.91337" fill="#5AB356"/>
<path d="M1.8667 0.537598H3.20003L4.97337 9.8526C5.03842 10.1937 5.20715 10.4987 5.45051 10.715C5.69387 10.9313 5.99664 11.0454 6.3067 11.0376H12.8267C13.1301 11.037 13.4244 10.9201 13.6607 10.706C13.8971 10.4919 14.0615 10.1935 14.1267 9.8601L15.2267 4.2876H3.91337M6.50003 14.7501C6.50003 15.1643 6.20156 15.5001 5.83337 15.5001C5.46518 15.5001 5.1667 15.1643 5.1667 14.7501C5.1667 14.3359 5.46518 14.0001 5.83337 14.0001C6.20156 14.0001 6.50003 14.3359 6.50003 14.7501ZM13.8334 14.7501C13.8334 15.1643 13.5349 15.5001 13.1667 15.5001C12.7985 15.5001 12.5 15.1643 12.5 14.7501C12.5 14.3359 12.7985 14.0001 13.1667 14.0001C13.5349 14.0001 13.8334 14.3359 13.8334 14.7501Z" stroke="#5AB356" stroke-linecap="round" stroke-linejoin="round"/>
</svg>
