<svg width="23" height="22" viewBox="0 0 23 22" fill="none" xmlns="http://www.w3.org/2000/svg">
<g clip-path="url(#clip0_1_2160)">
<path d="M1.3667 6.5376H2.70003L4.47337 15.8526C4.53842 16.1937 4.70715 16.4987 4.95051 16.715C5.19387 16.9313 5.49664 17.0454 5.8067 17.0376H12.3267C12.6301 17.037 12.9244 16.9201 13.1607 16.706C13.3971 16.4919 13.5615 16.1935 13.6267 15.8601L14.7267 10.2876H3.41337M6.00003 20.7501C6.00003 21.1643 5.70156 21.5001 5.33337 21.5001C4.96518 21.5001 4.6667 21.1643 4.6667 20.7501C4.6667 20.3359 4.96518 20.0001 5.33337 20.0001C5.70156 20.0001 6.00003 20.3359 6.00003 20.7501ZM13.3334 20.7501C13.3334 21.1643 13.0349 21.5001 12.6667 21.5001C12.2985 21.5001 12 21.1643 12 20.7501C12 20.3359 12.2985 20.0001 12.6667 20.0001C13.0349 20.0001 13.3334 20.3359 13.3334 20.7501Z" stroke="#4FAA4B" stroke-linecap="round" stroke-linejoin="round"/>
</g>
<rect x="8.5" y="0.5" width="14" height="14" rx="7" fill="#4FAA4B"/>
<rect x="8.5" y="0.5" width="14" height="14" rx="7" stroke="white"/>
<path d="M12 7.5L19 7.5M15.5 4L15.5 11" stroke="white"/>
<defs>
<clipPath id="clip0_1_2160">
<rect width="16" height="16" fill="white" transform="translate(0 6)"/>
</clipPath>
</defs>
</svg>
