<svg width="72" height="67" viewBox="0 0 72 67" fill="none" xmlns="http://www.w3.org/2000/svg">
<g clip-path="url(#clip0_1_2361)">
<path d="M14.7405 2.15036C19.1399 2.15036 22.511 3.5616 24.8456 6.39246C27.1886 9.21493 28.3601 13.3142 28.3601 18.6736C28.3601 24.5537 27.1717 29.0478 24.8035 32.1643C22.4268 35.2808 18.9629 36.8348 14.3949 36.8348C5.07362 36.8348 0.421387 31.0051 0.421387 19.3624C0.421387 13.8854 1.66872 9.65174 4.15497 6.65287C6.64122 3.654 10.1725 2.15876 14.7405 2.15876V2.15036ZM55.4391 0.419922L20.8086 66.5799H14.909L49.7081 0.419922H55.4391ZM57.9506 30.2574C62.35 30.2574 65.7212 31.6687 68.0557 34.4995C70.3987 37.322 71.5702 41.4213 71.5702 46.7806C71.5702 52.6608 70.3818 57.1549 68.0136 60.2714C65.6369 63.3878 62.173 64.9419 57.605 64.9419C48.2922 64.9419 43.6315 59.1205 43.6315 47.4694C43.6315 41.9925 44.8704 37.7588 47.3651 34.7599C49.8513 31.7611 53.3826 30.2658 57.9506 30.2658V30.2574Z" stroke="#4FAA4B"/>
<path d="M6.93604 19.7906C6.93604 11.3736 9.42228 7.16514 14.3948 7.16514V7.15674C19.3673 7.15674 21.8535 11.1132 21.8535 19.0094C21.8535 27.6028 19.3673 31.8953 14.3948 31.8953C9.42228 31.8953 6.93604 28.2076 6.93604 19.7906Z" stroke="#CCCCCC"/>
<path d="M50 47.6339C50 39.2169 52.4862 35.0084 57.4587 35.0084V35C62.4312 35 64.9175 38.9565 64.9175 46.8527C64.9175 55.4461 62.4312 59.7386 57.4587 59.7386C52.4862 59.7386 50 56.0509 50 47.6339Z" stroke="#CCCCCC"/>
</g>
<defs>
<clipPath id="clip0_1_2361">
<rect width="72" height="67" fill="white"/>
</clipPath>
</defs>
</svg>
