<svg width="44" height="46" viewBox="0 0 44 46" fill="none" xmlns="http://www.w3.org/2000/svg">
<g clip-path="url(#clip0_1_2300)">
<path d="M23.2319 45.709H2.72084C1.38112 45.709 0.292969 44.6265 0.292969 43.2938V2.70625C0.292969 1.37351 1.38112 0.291016 2.72084 0.291016H23.2261C24.5658 0.291016 25.654 1.37351 25.654 2.70625V20.4742" stroke="#4FAA4B" stroke-miterlimit="10"/>
<path d="M43.7012 43.2938V22.6508C43.7012 21.3169 42.6142 20.2356 41.2733 20.2356H20.7622C19.4213 20.2356 18.3343 21.3169 18.3343 22.6508V43.2938C18.3343 44.6277 19.4213 45.709 20.7622 45.709H41.2733C42.6142 45.709 43.7012 44.6277 43.7012 43.2938Z" stroke="#4FAA4B" stroke-miterlimit="10"/>
<path d="M18.3408 24.4783H43.7077" stroke="#4FAA4B" stroke-miterlimit="10"/>
<path d="M36.5645 22.29H41.4728" stroke="#4FAA4B" stroke-miterlimit="10"/>
<path d="M0.292969 16.249H25.9289" stroke="#4FAA4B" stroke-miterlimit="10"/>
<path d="M27.262 34.6455C27.262 33.3116 26.175 32.2302 24.8341 32.2302C23.4932 32.2302 22.4062 33.3116 22.4062 34.6455C22.4062 35.9794 23.4932 37.0607 24.8341 37.0607C26.175 37.0607 27.262 35.9794 27.262 34.6455Z" stroke="#4FAA4B" stroke-miterlimit="10"/>
<path d="M7.45925 16.249C7.45925 14.9151 6.37226 13.8337 5.03138 13.8337C3.69051 13.8337 2.60352 14.9151 2.60352 16.249C2.60352 17.5829 3.69051 18.6642 5.03138 18.6642C6.37226 18.6642 7.45925 17.5829 7.45925 16.249Z" stroke="#4FAA4B" stroke-miterlimit="10"/>
<path d="M24.9404 32.1779C25.9408 29.5648 28.4857 27.7083 31.4635 27.7083C35.3188 27.7083 38.4429 30.816 38.4429 34.6513C38.4429 38.4866 35.3188 41.5944 31.4635 41.5944C28.4623 41.5944 25.9057 39.7088 24.917 37.0665" stroke="#4FAA4B" stroke-miterlimit="10"/>
<path d="M23.8047 32.4572V36.7057" stroke="#4FAA4B" stroke-miterlimit="10"/>
<path d="M25.291 37.8871C25.291 37.8871 27.9997 38.3236 30.176 36.9094C34.3005 34.2323 37.3017 38.5389 38.2728 36.1586" stroke="#4FAA4B" stroke-miterlimit="10"/>
</g>
<defs>
<clipPath id="clip0_1_2300">
<rect width="44" height="46" fill="white"/>
</clipPath>
</defs>
</svg>
