<svg width="46" height="46" viewBox="0 0 46 46" fill="none" xmlns="http://www.w3.org/2000/svg">
<path d="M44.3616 11.8169L34.2102 1.64178C33.3056 0.735051 31.8389 0.735051 30.9343 1.64178L29.9278 2.65059C29.0232 3.55732 29.0232 5.02742 29.9278 5.93415L40.0793 16.1092C40.9839 17.016 42.4505 17.016 43.3552 16.1092L44.3616 15.1004C45.2662 14.1937 45.2662 12.7236 44.3616 11.8169Z" stroke="#4FAA4B" stroke-miterlimit="10"/>
<path d="M38 13.5058L35.6473 15.8585C34.1253 17.3805 31.6635 17.3805 30.1415 15.8585C28.6195 14.3365 28.6195 11.8747 30.1415 10.3527L32.4942 8" stroke="#4FAA4B" stroke-miterlimit="10"/>
<path d="M30.5 19.5L15.526 34.205C14.4881 35.2339 12.811 35.2339 11.7785 34.205C10.7405 33.176 10.7405 31.5135 11.7785 30.4899L27 15.5" stroke="#4FAA4B" stroke-miterlimit="10"/>
<path d="M39.3336 15.6458L37.0497 18.0763C34.7124 20.5635 30.9238 20.5635 28.5865 18.0763C26.2493 15.5891 25.8204 11.4801 28.1577 8.99288L30.5002 6.5" stroke="#4FAA4B" stroke-miterlimit="10"/>
<path fill-rule="evenodd" clip-rule="evenodd" d="M12.373 29.418C12.373 29.418 11.3823 25.0591 8.98868 25.8951C8.98868 25.8951 8.43894 25.7798 4.49344 30.0522C4.49344 30.0522 1.05186 33.5923 1.00032 38.2222C1.00032 38.2222 0.95451 41.3529 1.95663 43.2672C1.95663 43.2672 3.77764 45.8848 10.4146 44.6855C10.4146 44.6855 15.3965 43.9475 19.9147 37.3804C19.9147 37.3804 21.541 34.9415 16.5304 33.6384L12.3673 29.4237L12.373 29.418Z" stroke="#4FAA4B" stroke-miterlimit="10"/>
</svg>
