<svg width="50" height="45" viewBox="0 0 50 45" fill="none" xmlns="http://www.w3.org/2000/svg">
<g clip-path="url(#clip0_1_2328)">
<path d="M12.9865 10.8323C11.3453 10.8323 10.0229 9.55876 10.0229 7.99075V7.44982C10.0229 5.8818 11.3521 4.60822 12.9865 4.60822" stroke="#4FAA4B" stroke-miterlimit="10"/>
<path d="M10.7081 9.75043C9.06702 9.75043 7.74463 8.89453 7.74463 7.84005V7.47715C7.74463 6.42268 9.0738 5.56677 10.7081 5.56677" stroke="#4FAA4B" stroke-miterlimit="10"/>
<path d="M30.5373 29.491H17.7406C16.7218 29.491 15.896 30.3249 15.896 31.3535V31.689C15.896 32.7176 16.7218 33.5514 17.7406 33.5514H30.5373C31.556 33.5514 32.3818 32.7176 32.3818 31.689V31.3535C32.3818 30.3249 31.556 29.491 30.5373 29.491Z" stroke="#4FAA4B" stroke-miterlimit="10"/>
<path d="M25.4169 33.3871V42.0009C25.4169 43.4662 24.5625 44.6576 23.4978 44.6576C22.4399 44.6576 21.5786 43.4662 21.5786 42.0009V33.4145" stroke="#4FAA4B" stroke-miterlimit="10"/>
<path d="M21.5854 29.3883V28.5255V14.3038V11.6814V5.78589V2.99907C21.5854 1.53376 22.4399 0.342346 23.5046 0.342346C24.5625 0.342346 25.4238 1.53376 25.4238 2.99907V5.84067V11.5855V14.5093V28.6899V29.491" stroke="#4FAA4B" stroke-miterlimit="10"/>
<path d="M39.2921 23.6366C37.7391 23.6366 37.1559 22.3631 37.1559 20.795V17.9397C37.1559 16.3717 35.7047 15.0981 37.2576 15.0981H37.7595" stroke="#4FAA4B" stroke-miterlimit="10"/>
<path d="M25.417 2.40338H46.8465C48.3995 2.40338 49.6609 3.67697 49.6609 5.24498" stroke="#4FAA4B" stroke-miterlimit="10"/>
<path d="M21.5109 13.0371H15.8959C14.3429 13.0371 13.0815 11.7635 13.0815 10.1955V5.25182C13.0815 3.6838 14.3429 2.41022 15.8959 2.41022H21.5788" stroke="#4FAA4B" stroke-miterlimit="10"/>
<path d="M49.6608 5.25183V36.5026C49.6608 38.0706 48.3994 39.3442 46.8465 39.3442H41.9502C40.5058 39.3442 39.319 38.2486 39.1563 36.8313C39.1291 36.6121 39.1088 36.393 39.0545 36.1808L37.9966 31.9355C37.5287 30.0525 37.6779 28.0668 38.4239 26.2797L40.4922 21.3291V21.2949C40.655 19.4804 39.9497 17.6932 38.6002 16.4813L36.5928 13.0371H34.9314H25.4102" stroke="#4FAA4B" stroke-miterlimit="10"/>
<path d="M37.834 28.3818H45.3343" stroke="#4FAA4B" stroke-miterlimit="10"/>
<path d="M35.542 8.40839H43.0423" stroke="#4FAA4B" stroke-miterlimit="10"/>
<path d="M35.542 6.48431H43.0423" stroke="#4FAA4B" stroke-miterlimit="10"/>
<path d="M37.834 30.8262H45.3343" stroke="#4FAA4B" stroke-miterlimit="10"/>
<path d="M38.2817 33.5515H45.3345" stroke="#4FAA4B" stroke-miterlimit="10"/>
<path d="M7.73769 7.84692H0" stroke="#4FAA4B" stroke-miterlimit="10"/>
</g>
<defs>
<clipPath id="clip0_1_2328">
<rect width="50" height="45" fill="white"/>
</clipPath>
</defs>
</svg>
