<svg width="190" height="47" viewBox="0 0 190 47" fill="none" xmlns="http://www.w3.org/2000/svg">
<path fill-rule="evenodd" clip-rule="evenodd" d="M178.012 47C181.949 47 185.725 43.8177 186.404 39.9281L189.894 19.9569C190.574 16.0673 187.904 12.886 183.973 12.886H70.3372L51.3783 0L43.3472 5.45836V3.66134C43.3472 3.27094 43.0264 2.95394 42.6313 2.95394H40.5134C40.1193 2.95394 39.7975 3.27094 39.7975 3.66134V7.87105L32.4194 12.886H11.9874C8.05594 12.886 4.27407 16.0724 3.59527 19.9569L0.105346 39.9281C-0.57242 43.8116 2.09222 47 6.02677 47H178.012Z" fill="#269920"/>
<path fill-rule="evenodd" clip-rule="evenodd" d="M58.0457 17.4036C57.8208 17.1243 57.8807 16.7339 58.4656 16.3078L59.0825 15.8583C58.9463 15.6473 58.4563 15.4598 58.0241 15.3252L56.9429 15.0143C56.6427 14.9277 56.4993 14.889 56.3673 14.8869C56.1899 14.8859 56.0289 14.9471 55.673 15.1418C54.6084 15.7207 53.2116 15.3548 54.1101 14.0572L54.5434 13.4324C54.3505 13.2693 53.8368 13.2357 53.3911 13.2367L52.2873 13.2652C51.9809 13.2724 51.8344 13.2795 51.7117 13.3172C51.5466 13.3702 51.4166 13.4793 51.1463 13.7759C50.3376 14.6637 48.9222 14.7361 49.3513 13.2L49.5577 12.46C49.3276 12.3601 48.8386 12.4855 48.425 12.622L47.4068 12.9859C47.1241 13.0868 46.99 13.1388 46.8879 13.2132C46.7496 13.3152 46.663 13.4609 46.5051 13.832C46.0316 14.942 44.738 15.4425 44.6544 13.8197L44.6142 13.0379C44.3687 13.0114 43.9519 13.2826 43.6105 13.5415L42.7779 14.2071C42.5458 14.3905 42.4375 14.4813 42.3663 14.5852C42.2694 14.7259 42.2353 14.8941 42.2044 15.3028C42.1126 16.5249 41.0665 17.4097 40.4785 15.8563L40.1958 15.1091C39.9586 15.1581 39.6563 15.5485 39.4201 15.9042L38.8547 16.8053C38.6969 17.055 38.6237 17.1763 38.5896 17.2986C38.5453 17.4658 38.5649 17.639 38.666 18.0458C38.9631 19.2608 38.2688 20.4401 37.2331 19.1099L36.7358 18.4708C36.5305 18.5911 36.3717 19.062 36.2633 19.4809L36.0199 20.5288C35.9518 20.8193 35.9229 20.9589 35.9291 21.0884C35.9394 21.2647 36.0137 21.4268 36.2345 21.7917C36.8937 22.8823 36.6162 24.239 35.2359 23.2625L34.5715 22.7937C34.4188 22.973 34.4199 23.4796 34.4498 23.919L34.5519 25.0106C34.5798 25.3144 34.5973 25.4591 34.6437 25.5835C34.7087 25.7507 34.8284 25.8862 35.1482 26.1737C36.1055 27.0319 36.2716 28.4345 34.6819 27.9075L33.9164 27.6547C33.8308 27.8759 33.9907 28.3672 34.1568 28.7851L34.5952 29.8156C34.717 30.102 34.7778 30.2376 34.8604 30.3436C34.9728 30.4863 35.1265 30.5821 35.5144 30.7626C36.6739 31.3048 37.2723 32.6167 35.6258 32.5902L34.8346 32.5779C34.8243 32.8195 35.1265 33.2486 35.4133 33.6033L36.1447 34.4708C36.3469 34.7113 36.4459 34.8245 36.5573 34.903C36.7069 35.0069 36.8802 35.0528 37.298 35.1099C38.5463 35.2832 39.5139 36.3748 37.9758 36.8519L37.2351 37.0822C37.3011 37.3197 37.7179 37.6439 38.0955 37.9017L39.0487 38.5215C39.3128 38.6927 39.4407 38.7732 39.5676 38.815C39.7399 38.8701 39.9152 38.8619 40.3217 38.7906C41.538 38.5775 42.7821 39.343 41.4998 40.2767L40.8829 40.7252C41.0191 40.9362 41.5091 41.1238 41.9403 41.2593L43.0224 41.5702C43.3226 41.6568 43.466 41.6956 43.5981 41.6966C43.7755 41.6986 43.9364 41.6365 44.2923 41.4428C45.357 40.8638 46.7538 41.2298 45.8552 42.5273L45.422 43.1522C45.6149 43.3153 46.1296 43.3489 46.5743 43.3479L47.6781 43.3193C47.9236 43.3132 48.067 43.3071 48.1774 43.2857C45.8501 40.5285 44.4502 36.9813 44.4502 33.111C44.4502 25.1696 50.3438 18.588 58.0457 17.4036ZM54.2525 28.2867C54.2525 26.5426 52.8217 25.1299 51.0576 25.1299C50.8286 25.1299 50.6068 25.1533 50.3912 25.1982C51.8633 25.4958 53.0404 26.7669 53.1435 28.2897C53.2508 29.8788 52.1511 31.1937 50.6182 31.4139C50.7616 31.4333 50.9091 31.4434 51.0576 31.4434C52.8217 31.4434 54.2525 30.0297 54.2525 28.2867Z" fill="#056900"/>
<path fill-rule="evenodd" clip-rule="evenodd" d="M55.4419 42.7618L55.4296 43.5436C55.6741 43.5701 56.1084 43.2989 56.4674 43.04L57.3453 42.3744C57.5887 42.191 57.7032 42.1002 57.7827 41.9963C57.8879 41.8556 57.9343 41.6874 57.9921 41.2787C58.1675 40.0555 59.2733 39.1718 59.7551 40.7252L59.9882 41.4723C60.2286 41.4234 60.5567 41.032 60.8166 40.6773L61.4438 39.7762C61.6182 39.5265 61.6997 39.4052 61.742 39.2819C61.7977 39.1157 61.7894 38.9424 61.7172 38.5357C61.5006 37.3207 62.2743 36.1414 63.2213 37.4716L63.6752 38.1107C63.8888 37.9904 64.0786 37.5195 64.2158 37.1006L64.5304 36.0527C64.6181 35.7632 64.6563 35.6226 64.6583 35.4931C64.6604 35.3168 64.5975 35.1547 64.4015 34.7898C63.8155 33.6992 64.1848 32.3425 65.4991 33.3179L66.1315 33.7878C66.2965 33.6084 66.3295 33.1018 66.3285 32.6625L66.3006 31.5698C66.2934 31.2671 66.2862 31.1224 66.247 30.998C66.1944 30.8308 66.084 30.6953 65.7828 30.4078C64.8832 29.5496 64.8131 28.147 66.3667 28.674L67.1146 28.9268C67.2157 28.7056 67.0898 28.2143 66.9506 27.7964L66.5823 26.7659C66.4801 26.4794 66.4286 26.3439 66.3533 26.2379C66.2491 26.0952 66.1026 25.9994 65.7271 25.8189C64.6047 25.2767 64.0951 23.9648 65.7394 23.9903L66.5297 24.0036C66.5565 23.762 66.2831 23.3329 66.02 22.9781L65.3474 22.1107C65.1607 21.8702 65.0699 21.757 64.9637 21.6785C64.8213 21.5746 64.6511 21.5287 64.2374 21.4716C63.0005 21.2983 62.1072 20.2067 63.6773 19.7286L64.4334 19.4993C64.3839 19.2618 63.9888 18.9376 63.6288 18.6797L62.7179 18.06C62.4651 17.8888 62.3424 17.8082 62.2175 17.7665C62.0494 17.7104 61.873 17.7196 61.4624 17.7909C60.2317 18.0039 59.0392 17.2385 60.3844 16.3048L61.0322 15.8563C60.9105 15.6453 60.4329 15.4567 60.0099 15.3222L58.9494 15.0113C58.6554 14.9246 58.5141 14.8859 58.382 14.8849C58.2046 14.8828 58.0395 14.945 57.6713 15.1387C56.5674 15.7187 55.1954 15.3517 56.1816 14.0542L56.6572 13.4293C56.4746 13.2662 55.9629 13.2326 55.5183 13.2336L54.4124 13.2622C54.106 13.2693 53.9585 13.2764 53.8337 13.3152C53.6635 13.3671 53.5263 13.4762 53.2364 13.7738C52.3678 14.6617 50.9483 14.733 51.4806 13.1969L51.7374 12.4579C51.5136 12.358 51.0153 12.4824 50.5934 12.62L49.5504 12.9839C49.2606 13.0848 49.1234 13.1358 49.0161 13.2102C48.8716 13.3121 48.7747 13.4579 48.5921 13.8289C48.0433 14.9399 46.7156 15.4394 46.7414 13.8167L46.7548 13.0359C46.5103 13.0083 46.076 13.2795 45.716 13.5384L44.8391 14.204C44.5946 14.3875 44.4801 14.4782 44.4017 14.5821C44.2954 14.7238 44.25 14.891 44.1912 15.3008C44.0169 16.5229 42.911 17.4066 42.4282 15.8532L42.1961 15.1061C41.9547 15.156 41.6267 15.5464 41.3667 15.9021L40.7395 16.8022C40.5651 17.0519 40.4847 17.1732 40.4424 17.2965C40.3856 17.4627 40.3939 17.636 40.4671 18.0427C40.6827 19.2577 39.909 20.437 38.9631 19.1078L38.5081 18.4677C38.2946 18.588 38.1048 19.0589 37.9686 19.4779L37.6539 20.5257C37.5663 20.8162 37.5271 20.9558 37.525 21.0863C37.524 21.2616 37.5869 21.4237 37.7829 21.7886C38.3689 22.8793 37.9995 24.236 36.6853 23.2605L36.0519 22.7906C35.8868 22.97 35.8538 23.4766 35.8548 23.9159L35.8827 25.0086C35.8909 25.3113 35.8971 25.4561 35.9363 25.5804C35.99 25.7486 36.1004 25.8842 36.4005 26.1706C37.3001 27.0288 37.3713 28.4314 35.8177 27.9054L35.0687 27.6516C34.9687 27.8728 35.0945 28.3641 35.2328 28.7831L35.6011 29.8126C35.7032 30.099 35.7558 30.2345 35.8311 30.3406C35.9343 30.4833 36.0818 30.5791 36.4573 30.7595C37.5797 31.3018 38.0893 32.6136 36.4449 32.5881L35.6537 32.5749C35.6268 32.8164 35.9013 33.2456 36.1633 33.6003L36.8359 34.4677C37.0226 34.7083 37.1144 34.8224 37.2196 34.8999C37.362 35.0039 37.5322 35.0497 37.9459 35.1068C39.1838 35.2801 40.0762 36.3728 38.5061 36.8498L37.7499 37.0792C37.7994 37.3167 38.1945 37.6408 38.5545 37.8987L39.4665 38.5184C39.7192 38.6907 39.842 38.7702 39.9658 38.812C40.135 38.868 40.3103 38.8589 40.722 38.7875C41.9527 38.5745 43.1452 39.34 41.7989 40.2737L41.1521 40.7232C41.2739 40.9342 41.7505 41.1217 42.1734 41.2563L43.2339 41.5671C43.5279 41.6538 43.6703 41.6925 43.8013 41.6946C43.9787 41.6956 44.1438 41.6334 44.5121 41.4397C45.6169 40.8608 46.989 41.2267 46.0017 42.5243L45.5272 43.1491C45.7087 43.3122 46.2204 43.3458 46.6661 43.3448L47.772 43.3163C48.0783 43.3091 48.2248 43.302 48.3507 43.2643C48.5199 43.2113 48.6571 43.1022 48.947 42.8056C49.8166 41.9178 51.2361 41.8454 50.7028 43.3815L50.4469 44.1215C50.6708 44.2204 51.168 44.096 51.591 43.9594L52.6339 43.5945C52.9228 43.4946 53.061 43.4427 53.1683 43.3682C53.3127 43.2663 53.4087 43.1206 53.5923 42.7495C54.1411 41.6395 55.4677 41.139 55.4419 42.7618ZM47.3387 27.2093C46.4525 30.4863 50.2664 33.3047 53.354 31.4506C52.3275 32.1835 51.0267 32.4209 49.8022 32.0968C47.5336 31.4964 46.2194 29.3243 46.8301 27.0747C47.4305 24.8598 49.7372 23.5438 51.9778 24.1381C53.8976 24.6457 54.9757 26.3897 54.9189 28.2714C54.8663 26.616 53.909 25.2634 52.4451 24.7313C50.3437 23.9679 47.9308 25.029 47.3387 27.2093ZM51.0576 31.4434C52.8217 31.4434 54.2525 30.0297 54.2525 28.2867C54.2525 26.5426 52.8217 25.1299 51.0576 25.1299C49.2925 25.1299 47.8627 26.5426 47.8627 28.2867C47.8627 30.0297 49.2925 31.4434 51.0576 31.4434Z" fill="#FFD642"/>
<path d="M14.2755 39.5683H15.0399C21.2636 39.5683 27.4863 39.5642 33.7099 39.5642C34.0009 39.5642 34.2845 39.4032 34.4444 39.1361C34.6043 38.8721 34.6219 38.5388 34.495 38.2677L26.7775 21.8508C26.3113 20.858 25.3075 20.8927 25.3075 20.8927C24.3409 20.8927 23.2041 20.8468 22.288 20.8988C21.3998 20.9497 20.7148 21.1424 20.3125 21.8508L12.5517 35.4819H10.7979C10.1109 35.4819 9.54145 35.7857 9.23816 36.333L7.47205 39.5184C7.31834 39.7956 7.2843 40.1208 7.4411 40.3878C7.59172 40.6549 7.88985 40.82 8.22306 40.82H12.9736C13.3254 40.82 13.673 40.6447 13.8391 40.347L14.2755 39.5683ZM19.3912 35.487L23.5404 28.2051L26.8498 35.487H19.3912ZM69.6676 39.5683H84.5145C87.2297 39.5683 89.5684 37.5144 89.7262 34.9784C89.7809 34.1415 89.914 33.0764 89.8273 32.2426C89.4549 28.6811 86.4416 27.8932 83.4623 27.8932H75.4746C75.3497 27.8932 75.2579 27.8045 75.2651 27.6883L75.3889 25.7323C75.3961 25.6202 75.5045 25.5274 75.6262 25.5274H87.9663C88.4542 25.5274 88.8225 25.2033 88.8514 24.7477L89.0536 21.5878C89.066 21.3972 88.9938 21.2188 88.8442 21.07C88.6946 20.9222 88.5079 20.8437 88.3047 20.8437H70.8715C70.2567 20.8437 69.7244 21.3075 69.6872 21.8824L68.6206 38.5306C68.5855 39.1055 69.0528 39.5683 69.6676 39.5683ZM74.9546 32.5504C74.9639 32.4342 75.0691 32.3415 75.1919 32.3415H82.9712C83.5211 32.3415 83.9348 32.7553 83.9059 33.268L83.8729 33.7848C83.8388 34.2965 83.3643 34.7113 82.8144 34.7113H75.0392C74.9123 34.7113 74.8205 34.6176 74.8308 34.5024L74.9546 32.5504ZM113.362 25.7272C113.539 23.0271 111.331 20.8437 108.443 20.8437H94.3808C93.765 20.8437 93.2368 21.3116 93.1965 21.8824L92.1299 38.5306C92.0948 39.1055 92.5621 39.5683 93.178 39.5683H96.8979C97.5086 39.5683 98.0379 39.1055 98.0781 38.5306L98.2989 35.0773C98.303 34.9611 98.4082 34.8673 98.531 34.8673L107.546 34.8632C110.436 34.8632 112.921 32.6748 113.092 29.9787L113.362 25.7272ZM107.348 26.458L107.171 29.257C107.131 29.7647 106.662 30.1795 106.117 30.1795H98.8405C98.7136 30.1795 98.6228 30.0908 98.63 29.9706L98.8993 25.7405C98.9085 25.6253 99.0138 25.5315 99.1355 25.5315H106.413C106.962 25.5274 107.381 25.9464 107.348 26.458ZM116.015 39.5683H132.632C133.003 39.5683 133.32 39.288 133.343 38.9445L133.575 35.2821C133.596 34.9386 133.317 34.6573 132.945 34.6573H121.393C121.272 34.6573 121.18 34.5645 121.184 34.4483L121.299 32.6483C121.309 32.5372 121.414 32.4383 121.536 32.4383H130.829C131.195 32.4383 131.511 32.158 131.534 31.8196L131.745 28.5751C131.767 28.2326 131.483 27.9513 131.116 27.9513H121.828C121.702 27.9513 121.609 27.8575 121.613 27.7413L121.741 25.8128C121.745 25.7007 121.85 25.6028 121.973 25.6028H133.525C133.891 25.6028 134.213 25.3225 134.236 24.979L134.461 21.4502C134.484 21.1067 134.2 20.8254 133.833 20.8254H117.215C116.601 20.8254 116.067 21.2932 116.031 21.864L114.962 38.5256C114.926 39.1004 115.399 39.5683 116.015 39.5683ZM137.015 39.5683H153.632C154.004 39.5683 154.32 39.288 154.342 38.9445L154.575 35.2821C154.597 34.9386 154.317 34.6573 153.947 34.6573H142.394C142.272 34.6573 142.18 34.5645 142.184 34.4483L142.299 32.6483C142.309 32.5372 142.413 32.4383 142.536 32.4383H151.829C152.195 32.4383 152.512 32.158 152.535 31.8196L152.745 28.5751C152.768 28.2326 152.483 27.9513 152.117 27.9513H142.828C142.701 27.9513 142.609 27.8575 142.614 27.7413L142.742 25.8128C142.746 25.7007 142.851 25.6028 142.974 25.6028H154.526C154.892 25.6028 155.214 25.3225 155.236 24.979L155.461 21.4502C155.484 21.1067 155.2 20.8254 154.833 20.8254H138.216C137.601 20.8254 137.068 21.2932 137.032 21.864L135.963 38.5256C135.927 39.1004 136.4 39.5683 137.015 39.5683ZM158.01 39.5683H172.857C175.572 39.5683 177.91 37.5144 178.069 34.9784L178.175 33.3302C178.202 32.9428 178.207 32.581 178.169 32.2426C178.126 31.8196 178.01 31.4231 177.774 31.0082C177.719 30.9053 176.95 29.8044 176.884 29.8676C177.574 29.1989 178.032 28.3254 178.093 27.3581C178.096 27.3092 178.085 27.2694 178.104 27.2246L178.201 25.7272C178.372 23.0271 176.17 20.8437 173.276 20.8437H159.214C158.598 20.8437 158.07 21.3065 158.03 21.8824L156.963 38.5306C156.928 39.1055 157.396 39.5683 158.01 39.5683ZM163.297 32.5504C163.306 32.4342 163.412 32.3415 163.534 32.3415H171.314C171.863 32.3415 172.277 32.7553 172.248 33.268L172.216 33.7848C172.182 34.2965 171.707 34.7113 171.157 34.7113H163.382C163.255 34.7113 163.163 34.6176 163.173 34.5024L163.297 32.5504ZM163.732 25.7323C163.741 25.6212 163.847 25.5274 163.969 25.5274H171.246C171.796 25.5274 172.215 25.9413 172.18 26.454L172.147 26.9708C172.113 27.4784 171.644 27.8932 171.094 27.8932H163.817C163.69 27.8932 163.599 27.8045 163.608 27.6883L163.732 25.7323Z" fill="#056900"/>
<path d="M14.2011 39.5897H14.9656C21.1892 39.5897 27.4129 39.5856 33.6356 39.5856C33.9275 39.5856 34.2308 39.4174 34.4248 39.1391C34.6177 38.8639 34.6775 38.5174 34.5847 38.235L28.9428 21.1332C28.6013 20.0986 27.5935 20.1353 27.5935 20.1353C26.6279 20.1353 25.4972 20.0874 24.5729 20.1424C23.6785 20.1944 22.9698 20.3952 22.4777 21.1332L12.9942 35.3331H11.2394C10.5523 35.3331 9.94472 35.6501 9.57231 36.2199L7.40284 39.5377C7.21509 39.8272 7.13979 40.1646 7.26255 40.4428C7.38015 40.7211 7.65662 40.8934 7.99086 40.8934H12.7404C13.0932 40.8934 13.4615 40.7109 13.6657 40.401L14.2011 39.5897ZM19.8327 35.3382L24.902 27.7525L27.2912 35.3382H19.8327ZM69.5933 39.5897H84.4391C87.1554 39.5897 89.7529 37.4502 90.2326 34.8081C90.3925 33.9366 90.6597 32.8266 90.6783 31.9582C90.7567 28.2479 87.8424 27.4284 84.8631 27.4284H76.8764C76.7506 27.4284 76.6701 27.3356 76.6918 27.2143L77.0631 25.1768C77.0848 25.0606 77.2045 24.9627 77.3262 24.9627H89.6673C90.1542 24.9627 90.5638 24.6253 90.6504 24.1513L91.2519 20.859C91.288 20.6602 91.2384 20.4747 91.1074 20.3208C90.9775 20.1659 90.8 20.0843 90.5968 20.0843H73.1637C72.5499 20.0843 71.9577 20.5675 71.8484 21.1658L68.6772 38.5082C68.5689 39.1076 68.9784 39.5897 69.5933 39.5897ZM75.7674 32.2792C75.7901 32.1579 75.9077 32.0611 76.0305 32.0611H83.8098C84.3597 32.0611 84.7208 32.4923 84.6269 33.0264L84.5289 33.5646C84.4299 34.0987 83.9037 34.5299 83.3539 34.5299H75.5787C75.4518 34.5299 75.3723 34.433 75.3961 34.3117L75.7674 32.2792ZM115.038 25.1717C115.554 22.3584 113.624 20.0843 110.735 20.0843H96.673C96.0581 20.0843 95.4701 20.5716 95.3577 21.1658L92.1865 38.5082C92.0782 39.1076 92.4877 39.5897 93.1026 39.5897H96.8236C97.4343 39.5897 98.0213 39.1076 98.1347 38.5082L98.7919 34.9111C98.8104 34.7898 98.928 34.693 99.0508 34.693L108.066 34.6879C110.955 34.6879 113.718 32.4087 114.23 29.6005L115.038 25.1717ZM108.931 25.9331L108.399 28.8483C108.296 29.3773 107.775 29.8095 107.229 29.8095H99.9524C99.8255 29.8095 99.7461 29.7167 99.7698 29.5913L100.572 25.1859C100.596 25.0646 100.714 24.9678 100.835 24.9678H108.113C108.663 24.9627 109.029 25.399 108.931 25.9331ZM115.94 39.5897H132.556C132.928 39.5897 133.281 39.2971 133.347 38.9404L134.042 35.1241C134.107 34.7663 133.862 34.4748 133.492 34.4748H121.939C121.817 34.4748 121.737 34.377 121.756 34.2567L122.099 32.3812C122.123 32.265 122.24 32.163 122.362 32.163H131.655C132.021 32.163 132.374 31.8705 132.44 31.5178L133.06 28.1378C133.126 27.7801 132.876 27.4885 132.51 27.4885H123.222C123.096 27.4885 123.015 27.3907 123.034 27.2704L123.405 25.2603C123.425 25.1441 123.541 25.0422 123.664 25.0422H135.216C135.582 25.0422 135.939 24.7497 136.005 24.3919L136.678 20.7153C136.743 20.3575 136.494 20.066 136.128 20.066H119.511C118.895 20.066 118.303 20.5532 118.195 21.1475L115.019 38.5041C114.911 39.1024 115.324 39.5897 115.94 39.5897ZM136.941 39.5897H153.558C153.928 39.5897 154.281 39.2971 154.347 38.9404L155.042 35.1241C155.107 34.7663 154.864 34.4748 154.492 34.4748H142.939C142.818 34.4748 142.738 34.377 142.757 34.2567L143.099 32.3812C143.123 32.265 143.241 32.163 143.362 32.163H152.655C153.021 32.163 153.374 31.8705 153.44 31.5178L154.06 28.1378C154.126 27.7801 153.877 27.4885 153.51 27.4885H144.223C144.096 27.4885 144.015 27.3907 144.034 27.2704L144.405 25.2603C144.425 25.1441 144.542 25.0422 144.663 25.0422H156.216C156.583 25.0422 156.94 24.7497 157.005 24.3919L157.678 20.7153C157.743 20.3575 157.494 20.066 157.128 20.066H140.511C139.895 20.066 139.303 20.5532 139.196 21.1475L136.019 38.5041C135.911 39.1024 136.325 39.5897 136.941 39.5897ZM157.936 39.5897H172.782C175.497 39.5897 178.095 37.4502 178.574 34.8081L178.89 33.0906C178.964 32.687 179.016 32.3108 179.021 31.9582C179.03 31.5178 178.964 31.104 178.782 30.6728C178.739 30.5658 178.109 29.4191 178.035 29.4843C178.81 28.7881 179.378 27.8779 179.562 26.8708C179.571 26.8199 179.566 26.7781 179.589 26.7312L179.876 25.1717C180.388 22.3584 178.462 20.0843 175.568 20.0843H161.506C160.892 20.0843 160.304 20.5665 160.191 21.1658L157.02 38.5082C156.912 39.1076 157.321 39.5897 157.936 39.5897ZM164.109 32.2792C164.133 32.1579 164.25 32.0611 164.372 32.0611H172.153C172.702 32.0611 173.063 32.4923 172.97 33.0264L172.872 33.5646C172.773 34.0987 172.246 34.5299 171.697 34.5299H163.921C163.794 34.5299 163.715 34.433 163.739 34.3117L164.109 32.2792ZM165.406 25.1768C165.43 25.0606 165.547 24.9627 165.669 24.9627H172.947C173.496 24.9627 173.862 25.3949 173.764 25.929L173.665 26.4672C173.567 26.9962 173.045 27.4284 172.495 27.4284H165.218C165.091 27.4284 165.012 27.3356 165.034 27.2143L165.406 25.1768Z" fill="white"/>
<path d="M32.3701 16.8236L51.3785 3.90497L70.3869 16.8236L51.3785 6.53579L32.3701 16.8236Z" fill="white"/>
<path d="M77.8442 8.84858L77.9835 8.20438H74.1902L74.0499 8.84858H73.3794L73.6445 7.6295H74.1603C74.4358 7.2758 74.7102 6.76207 74.9856 6.09035C75.2611 5.41863 75.4715 4.7306 75.619 4.02626L75.8326 3.02225H79.1842L78.197 7.6295H78.7799L78.5147 8.84858H77.8442ZM77.5048 7.6295L78.3672 3.59714H76.3855L76.2308 4.32492C76.0977 4.95077 75.9079 5.57458 75.6592 6.19534C75.4117 6.81711 75.1672 7.29517 74.9268 7.6295H77.5048ZM84.8323 3.02225L83.712 8.20438H83.0198L84.0142 3.59714H82.0686L81.4136 6.283C81.0896 7.63663 80.5707 8.31446 79.8589 8.31446C79.6031 8.31446 79.4174 8.2849 79.2988 8.22681L79.4318 7.64478C79.4999 7.68759 79.6258 7.71002 79.8073 7.71002C80.0085 7.71002 80.188 7.58464 80.3448 7.33492C80.5026 7.08519 80.6574 6.64485 80.809 6.0139L81.5312 3.02225H84.8323ZM87.8559 5.9925L85.639 8.20438H84.7694L87.0606 5.93338C86.3529 5.78354 85.9991 5.36868 85.9991 4.68881C85.9991 4.20872 86.162 3.81119 86.486 3.49521C86.8099 3.18024 87.2741 3.02225 87.8786 3.02225H90.2431L89.131 8.20438H88.4378L88.9175 5.9925H87.8559ZM89.4322 3.59714H88.0261C87.6125 3.59714 87.2865 3.68582 87.0461 3.86318C86.8047 4.03951 86.6851 4.30045 86.6851 4.64498C86.6851 4.7571 86.7005 4.85496 86.7325 4.93956C86.7645 5.02518 86.7985 5.09449 86.8357 5.14749C86.8728 5.2005 86.9337 5.24535 87.0193 5.28204C87.106 5.31874 87.1751 5.34524 87.2256 5.36257C87.2772 5.37888 87.3649 5.39213 87.4877 5.40232C87.6104 5.41251 87.695 5.41659 87.7414 5.41659C87.7889 5.41659 87.8807 5.41659 88.0179 5.41659H89.0351L89.4322 3.59714ZM98.2432 8.84858H97.5737L97.7129 8.20438H93.9197L93.7794 8.84858H93.1089L93.374 7.6295H93.8898C94.1653 7.2758 94.4397 6.76207 94.7151 6.09035C94.9905 5.41863 95.1989 4.72958 95.3485 4.02626L95.562 3.02225H98.9148L97.9265 7.6295H98.5093L98.2432 8.84858ZM97.2343 7.6295L98.0967 3.59714H96.115L95.9602 4.32492C95.8272 4.95077 95.6373 5.57458 95.3887 6.19534C95.1411 6.81711 94.8967 7.29517 94.6563 7.6295H97.2343ZM102.646 2.90503C103.329 2.90503 103.87 3.10482 104.27 3.50234C104.67 3.89987 104.87 4.43908 104.87 5.11794C104.87 5.69588 104.76 6.2249 104.539 6.70499C104.318 7.18508 103.986 7.57445 103.545 7.87311C103.102 8.17177 102.591 8.3216 102.012 8.3216C101.33 8.3216 100.79 8.11774 100.395 7.71002C100 7.3023 99.8019 6.74678 99.8019 6.04244C99.8019 5.47571 99.9134 4.95586 100.133 4.48495C100.355 4.01505 100.684 3.63383 101.12 3.34231C101.558 3.05079 102.066 2.90503 102.646 2.90503ZM102.586 3.49521C101.988 3.49521 101.489 3.73678 101.091 4.21891C100.693 4.70206 100.494 5.30956 100.494 6.04244C100.494 6.56738 100.634 6.98224 100.914 7.28803C101.195 7.59382 101.575 7.7457 102.056 7.7457C102.666 7.7457 103.17 7.49699 103.57 6.99957C103.971 6.50317 104.171 5.87834 104.171 5.12609C104.171 4.62052 104.034 4.22299 103.758 3.93147C103.483 3.64097 103.093 3.49521 102.586 3.49521ZM110.377 3.02225L110.252 3.61956H107.35L107.025 5.14749H108.441C109.555 5.14749 110.112 5.59599 110.112 6.49399C110.112 6.98428 109.95 7.392 109.626 7.71715C109.302 8.04231 108.838 8.20438 108.233 8.20438H105.67L106.783 3.02225H110.377ZM109.427 6.53782C109.427 6.37779 109.399 6.24426 109.342 6.13724C109.287 6.03123 109.223 5.94969 109.15 5.89668C109.08 5.84368 108.973 5.80291 108.831 5.77335C108.688 5.7448 108.574 5.72849 108.488 5.72646C108.402 5.7234 108.272 5.72238 108.101 5.72238H106.9L106.488 7.6295H108.087C108.504 7.6295 108.832 7.5398 109.07 7.3604C109.307 7.181 109.427 6.90681 109.427 6.53782ZM112.348 3.02225H114.264C115.379 3.02225 115.936 3.47075 115.936 4.36875C115.936 4.85904 115.774 5.26471 115.449 5.58783C115.125 5.90993 114.661 6.072 114.058 6.072H112.385L111.921 8.20438H111.228L112.348 3.02225ZM112.916 3.59714L112.503 5.50425H113.91C114.328 5.50425 114.655 5.41455 114.893 5.23516C115.132 5.05576 115.251 4.78157 115.251 4.41258C115.251 4.25255 115.222 4.118 115.167 4.012C115.11 3.90497 115.046 3.82546 114.975 3.77144C114.904 3.71843 114.796 3.67664 114.654 3.6481C114.513 3.61956 114.397 3.60325 114.312 3.60019C114.226 3.59816 114.097 3.59714 113.925 3.59714H112.916ZM119.594 2.90503C120.277 2.90503 120.818 3.10482 121.218 3.50234C121.618 3.89987 121.819 4.43908 121.819 5.11794C121.819 5.69588 121.708 6.2249 121.487 6.70499C121.267 7.18508 120.934 7.57445 120.493 7.87311C120.05 8.17177 119.541 8.3216 118.961 8.3216C118.278 8.3216 117.739 8.11774 117.343 7.71002C116.948 7.3023 116.75 6.74678 116.75 6.04244C116.75 5.47571 116.862 4.95586 117.082 4.48495C117.303 4.01505 117.632 3.63383 118.07 3.34231C118.506 3.05079 119.015 2.90503 119.594 2.90503ZM119.536 3.49521C118.936 3.49521 118.437 3.73678 118.04 4.21891C117.642 4.70206 117.442 5.30956 117.442 6.04244C117.442 6.56738 117.583 6.98224 117.863 7.28803C118.143 7.59382 118.524 7.7457 119.004 7.7457C119.614 7.7457 120.118 7.49699 120.519 6.99957C120.919 6.50317 121.119 5.87834 121.119 5.12609C121.119 4.62052 120.982 4.22299 120.706 3.93147C120.431 3.64097 120.041 3.49521 119.536 3.49521ZM123.311 8.20438H122.618L123.731 3.02225H127.172L127.053 3.59714H124.298L123.311 8.20438ZM130.24 2.90503C130.922 2.90503 131.464 3.10482 131.864 3.50234C132.264 3.89987 132.465 4.43908 132.465 5.11794C132.465 5.69588 132.353 6.2249 132.133 6.70499C131.912 7.18508 131.581 7.57445 131.138 7.87311C130.697 8.17177 130.186 8.3216 129.606 8.3216C128.923 8.3216 128.384 8.11774 127.989 7.71002C127.593 7.3023 127.396 6.74678 127.396 6.04244C127.396 5.47571 127.507 4.95586 127.728 4.48495C127.948 4.01505 128.277 3.63383 128.715 3.34231C129.152 3.05079 129.66 2.90503 130.24 2.90503ZM130.181 3.49521C129.581 3.49521 129.082 3.73678 128.685 4.21891C128.288 4.70206 128.089 5.30956 128.089 6.04244C128.089 6.56738 128.228 6.98224 128.508 7.28803C128.788 7.59382 129.169 7.7457 129.65 7.7457C130.259 7.7457 130.764 7.49699 131.164 6.99957C131.564 6.50317 131.764 5.87834 131.764 5.12609C131.764 4.62052 131.627 4.22299 131.352 3.93147C131.077 3.64097 130.686 3.49521 130.181 3.49521ZM140.686 8.84858H140.016L140.155 8.20438H136.361L136.222 8.84858H135.551L135.816 7.6295H136.332C136.608 7.2758 136.882 6.76207 137.157 6.09035C137.432 5.41863 137.641 4.72958 137.791 4.02626L138.004 3.02225H141.356L140.369 7.6295H140.952L140.686 8.84858ZM139.677 7.6295L140.539 3.59714H138.557L138.403 4.32492C138.27 4.94975 138.08 5.57458 137.831 6.19534C137.584 6.81711 137.339 7.29517 137.099 7.6295H139.677ZM145.088 2.90503C145.77 2.90503 146.312 3.10482 146.712 3.50234C147.112 3.89987 147.313 4.43908 147.313 5.11794C147.313 5.69588 147.202 6.2249 146.981 6.70499C146.761 7.18508 146.429 7.57547 145.987 7.87311C145.545 8.17177 145.034 8.3216 144.454 8.3216C143.771 8.3216 143.233 8.11774 142.838 7.71002C142.442 7.3023 142.244 6.74678 142.244 6.04244C142.244 5.47571 142.355 4.95586 142.575 4.48495C142.796 4.01505 143.126 3.63383 143.563 3.34231C144 3.05079 144.509 2.90503 145.088 2.90503ZM145.029 3.49521C144.429 3.49521 143.931 3.73678 143.534 4.21891C143.136 4.70206 142.937 5.30956 142.937 6.04244C142.937 6.56738 143.077 6.98224 143.356 7.28803C143.636 7.5928 144.018 7.7457 144.498 7.7457C145.108 7.7457 145.613 7.49699 146.013 6.99957C146.413 6.50317 146.613 5.87834 146.613 5.12609C146.613 4.62052 146.475 4.22299 146.201 3.93147C145.925 3.64097 145.535 3.49521 145.029 3.49521ZM148.105 8.20438L149.24 3.02225H150.175L150.889 7.4766L153.513 3.02225H154.47L153.358 8.20438H152.68L153.763 3.6481L151.052 8.20438H150.455L149.704 3.65524L148.775 8.20438H148.105ZM158.518 3.02225L159.454 8.20438H158.739L158.489 6.62548H156.286L155.358 8.20438H154.57L157.737 3.02225H158.518ZM158.4 6.07914L158.009 3.66951L156.602 6.07914H158.4Z" fill="#269920"/>
</svg>
