<svg width="60" height="22" viewBox="0 0 60 22" fill="none" xmlns="http://www.w3.org/2000/svg">
<g clip-path="url(#clip0_1_2551)">
<path d="M10.2238 1.5304C10.6427 1.5304 10.9807 1.18873 10.9807 0.7652C10.9807 0.341671 10.6427 0 10.2238 0C9.80479 0 9.4668 0.341671 9.4668 0.7652C9.4668 1.18873 9.80479 1.5304 10.2238 1.5304Z" fill="#33AD43"/>
<path d="M26.4869 13.1365H24.6104L27.1488 0L31.349 9.48848L35.5915 0L37.8729 13.1365H35.9963L34.7676 5.77637L31.2575 13.2575L27.772 5.76214L26.4904 13.1365H26.4869Z" fill="#8D9487"/>
<path d="M38.8477 0.124567H40.8474L44.0337 8.30331L47.2903 0L50.4378 8.30331L53.7332 0.135245H55.733L50.3287 13.133L47.1812 4.47731L43.9949 13.133L38.8477 0.124567Z" fill="#8D9487"/>
<path d="M58.1475 0H59.9994V13.1365H58.1475V0Z" fill="#8D9487"/>
<path fill-rule="evenodd" clip-rule="evenodd" d="M26.1234 20.5215C26.5705 20.5215 26.8663 20.3151 26.9613 20.1513V20.4788H27.3944V16.6421H26.9613V17.9518C26.7994 17.7881 26.5424 17.6778 26.1516 17.6778C25.4087 17.6778 24.7891 18.265 24.7891 19.1121C24.7891 19.9591 25.3418 20.5179 26.1269 20.5179L26.1234 20.5215ZM26.9613 18.475V19.5819C26.8522 19.799 26.5846 20.1015 26.1762 20.1015C25.6376 20.1015 25.2432 19.7314 25.2432 19.105C25.2432 18.4786 25.6904 18.0942 26.2009 18.0942C26.5529 18.0942 26.7959 18.2294 26.9578 18.475H26.9613Z" fill="#8D9487"/>
<path fill-rule="evenodd" clip-rule="evenodd" d="M28.7145 16.8492C28.7145 16.6997 28.5912 16.5894 28.4434 16.5894C28.2814 16.5894 28.1582 16.6997 28.1582 16.8492C28.1582 17.0129 28.2814 17.1232 28.4434 17.1232C28.5912 17.1232 28.7145 17.0129 28.7145 16.8492ZM28.6476 17.7354H28.2145V20.4794H28.6476V17.7354Z" fill="#8D9487"/>
<path fill-rule="evenodd" clip-rule="evenodd" d="M30.7145 21.5752C31.4046 21.5752 31.9292 21.1944 31.9292 20.2655V17.7243H31.482V17.9699C31.3588 17.8204 31.0771 17.6709 30.6723 17.6709C29.9294 17.6709 29.3203 18.2048 29.3203 19.091C29.3203 19.9772 29.859 20.511 30.6723 20.511C31.13 20.511 31.3201 20.3758 31.4961 20.1694V20.3331C31.4961 20.8385 31.225 21.1374 30.7004 21.1374C30.2674 21.1374 30.0104 20.931 29.9048 20.7281L29.514 20.9061C29.6618 21.3154 30.123 21.5752 30.7145 21.5752ZM31.4996 18.4895V19.5964C31.4046 19.8562 31.1335 20.116 30.7427 20.1017C30.1618 20.1017 29.785 19.7316 29.785 19.1052C29.785 18.4788 30.2322 18.0944 30.7427 18.0944C31.1088 18.0944 31.3764 18.2724 31.4996 18.4895Z" fill="#8D9487"/>
<path fill-rule="evenodd" clip-rule="evenodd" d="M33.2535 16.8492C33.2535 16.6997 33.1303 16.5894 32.9824 16.5894C32.8205 16.5894 32.6973 16.6997 32.6973 16.8492C32.6973 17.0129 32.8205 17.1232 32.9824 17.1232C33.1303 17.1232 33.2535 17.0129 33.2535 16.8492ZM33.1866 17.7354H32.7536V20.4794H33.1866V17.7354Z" fill="#8D9487"/>
<path d="M33.7281 17.7386H34.295V17.041H34.728V17.7386H35.661V18.1621H34.728V19.3651C34.728 19.9096 34.8759 20.0876 35.1998 20.0876C35.3899 20.0876 35.5378 20.0057 35.6856 19.8954L35.8863 20.2228C35.7244 20.4008 35.4533 20.5111 35.1153 20.5111C34.5872 20.5111 34.2914 20.1552 34.2914 19.4719V18.1621H33.7246V17.7386H33.7281Z" fill="#8D9487"/>
<path fill-rule="evenodd" clip-rule="evenodd" d="M37.4004 17.6671C37.0097 17.6671 36.5766 17.8309 36.3196 18.0622L36.5344 18.3896C36.7914 18.1974 37.0343 18.0907 37.3441 18.0907C37.911 18.0907 38.0729 18.4181 38.0729 18.9092C37.9391 18.8701 37.6399 18.8274 37.4392 18.8274C36.6576 18.8274 36.1436 19.073 36.1436 19.6744C36.1436 20.1798 36.5344 20.5073 37.1294 20.5073C37.6011 20.5073 37.9145 20.3008 38.0764 20.0695V20.4788H38.5095V18.7704C38.5095 18.0729 38.1328 17.6636 37.4004 17.6636V17.6671ZM38.0764 19.3043V19.5784C37.9814 19.7955 37.6856 20.1122 37.2244 20.1122C36.8583 20.1122 36.6048 19.9485 36.6048 19.6602C36.6048 19.3328 36.9428 19.2224 37.4955 19.2224C37.7103 19.2224 37.9426 19.2616 38.0764 19.3043Z" fill="#8D9487"/>
<path d="M39.291 16.6318H39.7241V20.4828H39.291V16.6318Z" fill="#8D9487"/>
<path fill-rule="evenodd" clip-rule="evenodd" d="M43.2911 17.6671C42.9003 17.6671 42.4672 17.8309 42.2102 18.0622L42.425 18.3896C42.682 18.1974 42.9249 18.0907 43.2347 18.0907C43.8016 18.0907 43.9635 18.4181 43.9635 18.9092C43.8297 18.8701 43.5305 18.8274 43.3298 18.8274C42.5482 18.8274 42.0342 19.073 42.0342 19.6744C42.0342 20.1798 42.425 20.5073 43.02 20.5073C43.4918 20.5073 43.8016 20.3008 43.9635 20.0695V20.4788H44.3966V18.7704C44.3966 18.0729 44.0199 17.6636 43.2876 17.6636L43.2911 17.6671ZM43.9671 19.3043V19.5784C43.872 19.7955 43.5763 20.1122 43.115 20.1122C42.7524 20.1122 42.4954 19.9485 42.4954 19.6602C42.4954 19.3328 42.8334 19.2224 43.3861 19.2224C43.6009 19.2224 43.8333 19.2616 43.9671 19.3043Z" fill="#8D9487"/>
<path fill-rule="evenodd" clip-rule="evenodd" d="M46.3815 21.5752C47.0716 21.5752 47.5962 21.1944 47.5962 20.2655V17.7243H47.149V17.9699C47.0258 17.8204 46.7441 17.6709 46.3393 17.6709C45.5964 17.6709 44.9873 18.2048 44.9873 19.091C44.9873 19.9772 45.5295 20.511 46.3393 20.511C46.797 20.511 46.9871 20.3758 47.1631 20.1694V20.3331C47.1631 20.8385 46.892 21.1374 46.3674 21.1374C45.9344 21.1374 45.6774 20.931 45.5717 20.7281L45.1809 20.9061C45.3288 21.3154 45.79 21.5752 46.3815 21.5752ZM47.1525 18.4895V19.5964C47.0716 19.8562 46.8005 20.116 46.3956 20.1017C45.8147 20.1017 45.438 19.7316 45.438 19.1052C45.438 18.4788 45.8851 18.0944 46.3956 18.0944C46.7617 18.0944 47.0293 18.2724 47.1525 18.4895Z" fill="#8D9487"/>
<path fill-rule="evenodd" clip-rule="evenodd" d="M49.6531 20.536C50.1002 20.536 50.4769 20.3438 50.7339 19.963L50.4487 19.7032C50.2868 19.9345 49.9911 20.1125 49.6636 20.1125C49.1109 20.1125 48.706 19.8135 48.6778 19.2512H50.8114C50.8396 19.1266 50.8395 19.0199 50.8395 18.9238C50.8395 18.1586 50.2974 17.6816 49.5827 17.6816C48.6778 17.6816 48.2061 18.308 48.2061 19.1159C48.2061 19.9772 48.787 20.536 49.6531 20.536ZM50.3819 18.8561H48.6673C48.7342 18.4041 49.0581 18.0767 49.558 18.0909C50.0439 18.0909 50.3537 18.365 50.3819 18.8561Z" fill="#8D9487"/>
<path d="M51.4482 17.7384H51.8813V18.0944C52.0573 17.8203 52.4235 17.6851 52.8143 17.6851C53.5184 17.6851 53.9092 18.0552 53.9092 18.9272V20.4825H53.4762V18.9806C53.4762 18.3791 53.2192 18.105 52.6805 18.105C52.3425 18.105 52.0327 18.3221 51.8848 18.6638V20.4789H51.4518V17.7349L51.4482 17.7384Z" fill="#8D9487"/>
<path d="M57.067 19.9096C56.8663 20.3046 56.3769 20.5253 55.9474 20.5253C55.0813 20.5253 54.5039 19.9665 54.5039 19.1052C54.5039 18.3009 55.0707 17.6709 55.9228 17.6709C56.4086 17.6709 56.8417 17.888 57.0177 18.2297L56.6797 18.461C56.4896 18.2012 56.2607 18.0909 55.9228 18.0909C55.37 18.0909 54.951 18.5144 54.951 19.1016C54.951 19.6889 55.3559 20.1124 55.9791 20.1124C56.303 20.1124 56.5741 19.9487 56.736 19.6889L57.074 19.906L57.067 19.9096Z" fill="#8D9487"/>
<path d="M57.7575 21.1376C57.7962 21.1518 57.8244 21.1661 57.8666 21.1661C58.0673 21.1661 58.2046 21.0308 58.3947 20.5931L58.4757 20.3866L57.166 17.7529H57.68L58.694 19.8279L59.465 17.7529H59.9368L58.9088 20.4578C58.5426 21.3867 58.261 21.6038 57.8807 21.6038C57.7716 21.6038 57.666 21.5754 57.585 21.5362L57.761 21.1412L57.7575 21.1376Z" fill="#8D9487"/>
<path d="M16.8285 13.1224H19.7859L20.4619 11.9763H16.0434L14.1105 17.411L12.8818 15.1724L10.787 19.0375V2.49854H9.65332V21.4363H10.787L12.8818 17.3932L14.1774 20.1373L14.4873 19.3045L14.7584 18.5962" fill="#8D9487"/>
<path d="M3.63338 10.8125H0.661894L0 11.9585H4.4185L6.35137 6.50961L7.56601 8.7625L9.66084 4.89735V21.4328H10.8086V2.49854H9.66084L7.5801 6.54164L6.28447 3.7976L5.97465 4.63042H5.96057L5.70356 5.328V5.34223" fill="#8D9487"/>
</g>
<defs>
<clipPath id="clip0_1_2551">
<rect width="60" height="21.6" fill="white"/>
</clipPath>
</defs>
</svg>
