<svg width="47" height="47" viewBox="0 0 47 47" fill="none" xmlns="http://www.w3.org/2000/svg">
<path d="M18.2437 4.43582L18.2461 4.43227L18.2499 4.42626C19.3499 2.6834 21.2914 1.52606 23.4999 1.52606C25.6866 1.52606 27.6116 2.6606 28.7171 4.37465L28.7177 4.37645L28.7496 4.42792C29.4278 5.51969 30.7522 6.01801 31.977 5.65266H31.9801L32.0545 5.62884C34.0161 5.0006 36.2468 5.36238 37.9396 6.78276L37.9397 6.78279C39.6174 8.19023 40.3622 10.3012 40.1032 12.3299L40.1024 12.3322L40.0956 12.3799C39.9138 13.6599 40.6159 14.9006 41.8056 15.4012L41.8106 15.4045L41.8551 15.4227C43.7618 16.2034 45.2381 17.9145 45.6223 20.0881C46.0049 22.2636 45.2027 24.376 43.6776 25.7618L43.6667 25.7717L43.6643 25.7742C42.6984 26.6508 42.4498 28.0728 43.0671 29.2242L43.0788 29.246L43.0806 29.2486C44.0277 31.0683 44.0524 33.3173 42.9542 35.2208C41.8516 37.1308 39.8837 38.2329 37.828 38.3172H37.8238L37.8158 38.3174C36.5125 38.3591 35.4052 39.2831 35.1298 40.5563C35.1265 40.5687 35.1241 40.58 35.1223 40.5898C34.6811 42.5993 33.254 44.3445 31.1826 45.0981C29.1072 45.8532 26.8878 45.4308 25.2584 44.1685L25.2447 44.1578L25.2407 44.1552C24.2112 43.3576 22.7685 43.3617 21.7433 44.1675L21.7196 44.1861L21.7166 44.1891C20.0895 45.4351 17.882 45.8493 15.8171 45.0981C13.7419 44.343 12.3134 42.5926 11.8766 40.5787L11.8768 40.5787L11.874 40.5672C11.601 39.2882 10.4909 38.3611 9.18469 38.3175L9.17635 38.3172H9.17184C7.11632 38.2329 5.14986 37.1309 4.04723 35.2208L4.04715 35.2207C2.94763 33.3174 2.97356 31.0686 3.92084 29.2486L3.92276 29.2457L3.93458 29.2236C4.54215 28.087 4.30773 26.6861 3.37098 25.8083L3.3672 25.8027L3.32222 25.7618C1.7971 24.376 0.995041 22.2637 1.37908 20.0885L1.37912 20.0882C1.75952 17.9269 3.22134 16.2227 5.11256 15.436L5.11646 15.435L5.14784 15.4224C6.36465 14.9338 7.08843 13.6773 6.90417 12.3799L6.8954 12.3181C6.64017 10.2942 7.38522 8.18802 9.06158 6.78292L9.06193 6.78263C10.7503 5.36477 12.9764 5.00176 14.9358 5.62576C14.9372 5.62626 14.9387 5.62676 14.9401 5.62726C14.9476 5.62978 14.9576 5.63297 14.9697 5.63627C16.2064 6.03142 17.5543 5.53766 18.2437 4.43582Z" stroke="#4FAA4B"/>
<path d="M18.0622 20V27H17.0206L13.2029 21.8662H13.1332V27H12V20H13.0489L16.8703 25.1406H16.94V20H18.0622Z" fill="#4FAA4B"/>
<path d="M19.7153 27V20H24.4242V20.9092H20.8485V23.042H24.1785V23.9478H20.8485V26.0908H24.4682V27H19.7153Z" fill="#4FAA4B"/>
<path d="M27.4085 27L25.3254 20H26.5173L27.9806 25.4209H28.0503L29.5723 20H30.7532L32.2751 25.4243H32.3448L33.8044 20H35L32.9133 27H31.7727L30.1921 21.7568H30.1334L28.5527 27H27.4085Z" fill="#4FAA4B"/>
</svg>
