<svg width="36" height="45" viewBox="0 0 36 45" fill="none" xmlns="http://www.w3.org/2000/svg">
<circle cx="18" cy="27" r="17.5" stroke="#4FAA4B"/>
<path d="M25 11V8C25 6.89543 24.1046 6 23 6H13C11.8954 6 11 6.89543 11 8V11" stroke="#4FAA4B"/>
<circle cx="18" cy="3" r="2.5" stroke="#4FAA4B"/>
<path d="M5 38C7.08 36.6667 8.12 36.6667 10.2 38C12.28 39.3333 13.32 39.3333 15.4 38C17.48 36.6667 18.52 36.6667 20.6 38C22.68 39.3333 23.72 39.3333 25.8 38C27.88 36.6667 28.92 36.6667 31 38" stroke="#4FAA4B"/>
<path d="M5 16C7.08 17.3333 8.12 17.3333 10.2 16C12.28 14.6667 13.32 14.6667 15.4 16C17.48 17.3333 18.52 17.3333 20.6 16C22.68 14.6667 23.72 14.6667 25.8 16C27.88 17.3333 28.92 17.3333 31 16" stroke="#4FAA4B"/>
</svg>
