<svg width="106" height="90" viewBox="0 0 106 90" fill="none" xmlns="http://www.w3.org/2000/svg">
<g clip-path="url(#clip0_1_4053)">
<path d="M73.7736 22.3443L52.9554 1.57574C51.4684 0.0916164 49.0543 0.0916164 47.5673 1.57574L1.5801 47.4735C0.0930911 48.9577 0.0930911 51.3671 1.5801 52.8512L30.3106 81.5259C31.7976 83.01 34.2117 83.01 35.6987 81.5259L40.9216 76.3131" stroke="#4FAA4B" stroke-miterlimit="10"/>
<path d="M54.7536 3.3623L3.36914 54.6469" stroke="#4FAA4B" stroke-miterlimit="10"/>
<path d="M60.6833 9.28027L9.29883 60.5649" stroke="#4FAA4B" stroke-miterlimit="10"/>
<path d="M58.4371 88.4267L104.429 42.5238C105.917 41.0391 105.917 38.6318 104.429 37.1471L84.1529 16.9099C82.6652 15.4252 80.2533 15.4252 78.7657 16.9099L32.7734 62.8128C31.2857 64.2976 31.2857 66.7048 32.7734 68.1895L53.05 88.4267C54.5376 89.9115 56.9495 89.9115 58.4371 88.4267Z" stroke="#4FAA4B" stroke-miterlimit="10"/>
<path d="M57.5625 45.7971L59.9215 43.4427C62.4366 40.9325 66.5213 40.9325 69.0363 43.4427C71.5514 45.9529 71.5514 50.0296 69.0363 52.5398L66.9252 54.6469" stroke="#4FAA4B" stroke-miterlimit="10"/>
<path d="M57.8555 45.5039L75.2682 62.8828" stroke="#4FAA4B" stroke-miterlimit="10"/>
<path d="M74.3415 52.3564L67.7051 58.98" stroke="#4FAA4B" stroke-miterlimit="10"/>
<path d="M75.5994 53.6116L68.9629 60.2351" stroke="#4FAA4B" stroke-miterlimit="10"/>
</g>
<defs>
<clipPath id="clip0_1_4053">
<rect width="106" height="90" fill="white"/>
</clipPath>
</defs>
</svg>
