<svg width="90" height="90" viewBox="0 0 90 90" fill="none" xmlns="http://www.w3.org/2000/svg">
<g clip-path="url(#clip0_1_4036)">
<path d="M32.7621 88.1031L88.0934 32.7718C89.8831 30.9821 89.8831 28.0804 88.0934 26.2907L63.6996 1.89682C61.9099 0.107118 59.0082 0.107118 57.2185 1.89682L1.88714 57.2281C0.0974419 59.0178 0.0974446 61.9195 1.88715 63.7092L26.281 88.1031C28.0707 89.8928 30.9724 89.8928 32.7621 88.1031Z" stroke="#4FAA4B" stroke-miterlimit="10"/>
<path d="M38.7522 77.2576L78.3649 37.6448C80.1546 35.8551 80.1546 32.9535 78.3649 31.1638L58.7811 11.5799C56.9914 9.79023 54.0897 9.79023 52.3 11.5799L12.6873 51.1927C10.8976 52.9824 10.8976 55.8841 12.6873 57.6738L32.2711 77.2576C34.0608 79.0473 36.9625 79.0473 38.7522 77.2576Z" stroke="#4FAA4B" stroke-miterlimit="10"/>
<path d="M68.123 13.6821L76.2507 21.8208" stroke="#4FAA4B" stroke-miterlimit="10"/>
<path d="M18.1873 74.7277C19.8279 74.7277 21.1579 73.3978 21.1579 71.7572C21.1579 70.1166 19.8279 68.7866 18.1873 68.7866C16.5468 68.7866 15.2168 70.1166 15.2168 71.7572C15.2168 73.3978 16.5468 74.7277 18.1873 74.7277Z" stroke="#4FAA4B" stroke-miterlimit="10"/>
<path d="M52.7684 31.0467L50.457 28.7354L48.1457 31.0467L50.457 33.358L52.7684 31.0467Z" stroke="#4FAA4B" stroke-miterlimit="10"/>
<path d="M60.198 38.4759L57.8867 36.1646L55.5754 38.4759L57.8867 40.7872L60.198 38.4759Z" stroke="#4FAA4B" stroke-miterlimit="10"/>
<path d="M41.8211 41.2696L39.5098 38.9583L37.1984 41.2696L39.5098 43.5809L41.8211 41.2696Z" stroke="#4FAA4B" stroke-miterlimit="10"/>
<path d="M49.2723 48.7068L46.9609 46.3955L44.6496 48.7068L46.9609 51.0182L49.2723 48.7068Z" stroke="#4FAA4B" stroke-miterlimit="10"/>
<path d="M46.093 36.8235L44.7109 35.4414L43.3288 36.8235L44.7109 38.2056L46.093 36.8235Z" fill="#4FAA4B"/>
<path d="M48.7747 36.8326L47.3926 35.4504L46.0105 36.8326L47.3926 38.2147L48.7747 36.8326Z" fill="#4FAA4B"/>
<path d="M48.7766 39.5139L47.3945 38.1318L46.0124 39.5139L47.3945 40.8961L48.7766 39.5139Z" fill="#4FAA4B"/>
<path d="M51.4485 36.823L50.0664 35.4409L48.6843 36.823L50.0664 38.2051L51.4485 36.823Z" fill="#4FAA4B"/>
<path d="M53.4583 38.8416L52.0762 37.4595L50.6941 38.8416L52.0762 40.2237L53.4583 38.8416Z" fill="#4FAA4B"/>
<path d="M52.2591 43.0103L50.877 41.6282L49.4948 43.0103L50.877 44.3924L52.2591 43.0103Z" fill="#4FAA4B"/>
<path d="M52.263 45.7342L50.8809 44.3521L49.4987 45.7342L50.8809 47.1163L52.263 45.7342Z" fill="#4FAA4B"/>
<path d="M48.7688 42.2378L47.3867 40.8557L46.0046 42.2378L47.3867 43.6199L48.7688 42.2378Z" fill="#4FAA4B"/>
</g>
<defs>
<clipPath id="clip0_1_4036">
<rect width="90" height="90" fill="white"/>
</clipPath>
</defs>
</svg>
