<svg width="14" height="14" viewBox="0 0 14 14" fill="none" xmlns="http://www.w3.org/2000/svg">
<g clip-path="url(#clip0_1_2423)">
<path d="M12.9362 9.82635V11.6328C12.9368 11.8005 12.9024 11.9665 12.8351 12.1202C12.7678 12.2738 12.669 12.4118 12.5452 12.5252C12.4214 12.6385 12.2752 12.7248 12.116 12.7786C11.9569 12.8323 11.7882 12.8522 11.6208 12.8372C9.7642 12.6358 7.98078 12.0026 6.41387 10.9885C4.95605 10.064 3.72008 8.83047 2.79373 7.37555C1.77404 5.80463 1.13947 4.01609 0.941421 2.15481C0.926343 1.98829 0.946172 1.82047 0.999645 1.66202C1.05312 1.50357 1.13906 1.35796 1.25201 1.23448C1.36495 1.111 1.50242 1.01234 1.65567 0.944781C1.80891 0.877226 1.97457 0.842257 2.1421 0.842099H3.95217C4.24498 0.839223 4.52885 0.942708 4.75087 1.13326C4.97289 1.32382 5.1179 1.58845 5.15888 1.87782C5.23528 2.45593 5.37697 3.02357 5.58123 3.56989C5.66241 3.78542 5.67998 4.01965 5.63186 4.24484C5.58374 4.47003 5.47194 4.67673 5.30972 4.84045L4.54346 5.6052C5.40237 7.11273 6.65307 8.36095 8.1636 9.21816L8.92986 8.45342C9.09391 8.29152 9.30102 8.17995 9.52665 8.13192C9.75229 8.08389 9.98699 8.10143 10.2029 8.18245C10.7504 8.38631 11.3191 8.52771 11.8984 8.60396C12.1915 8.64522 12.4591 8.79256 12.6505 9.01794C12.8418 9.24332 12.9435 9.53103 12.9362 9.82635Z" stroke="#5AB356" stroke-linecap="round" stroke-linejoin="round"/>
</g>
<defs>
<clipPath id="clip0_1_2423">
<rect width="14" height="14" fill="white"/>
</clipPath>
</defs>
</svg>
