<svg width="13" height="16" viewBox="0 0 13 16" fill="none" xmlns="http://www.w3.org/2000/svg">
<g clip-path="url(#clip0_1_2419)">
<path d="M12.0716 6.60007C12.0716 10.0952 8.21405 13.7353 6.91869 14.8595C6.79802 14.9507 6.65112 15 6.50014 15C6.34916 15 6.20226 14.9507 6.08159 14.8595C4.78623 13.7353 0.928711 10.0952 0.928711 6.60007C0.928711 5.11484 1.5157 3.69044 2.56054 2.64022C3.60539 1.59001 5.0225 1 6.50014 1C7.97777 1 9.39489 1.59001 10.4397 2.64022C11.4846 3.69044 12.0716 5.11484 12.0716 6.60007Z" stroke="#5AB356" stroke-linecap="round" stroke-linejoin="round"/>
<path d="M6.50014 8.7001C7.65402 8.7001 8.58943 7.75988 8.58943 6.60007C8.58943 5.44026 7.65402 4.50004 6.50014 4.50004C5.34626 4.50004 4.41085 5.44026 4.41085 6.60007C4.41085 7.75988 5.34626 8.7001 6.50014 8.7001Z" stroke="#5AB356" stroke-linecap="round" stroke-linejoin="round"/>
</g>
<defs>
<clipPath id="clip0_1_2419">
<rect width="13" height="16" fill="white"/>
</clipPath>
</defs>
</svg>
