<svg width="74" height="66" viewBox="0 0 74 66" fill="none" xmlns="http://www.w3.org/2000/svg">
<path d="M70 10C70 14.993 64.461 20.193 62.601 21.799C62.4277 21.9293 62.2168 21.9998 62 21.9998C61.7832 21.9998 61.5723 21.9293 61.399 21.799C59.539 20.193 54 14.993 54 10C54 7.87827 54.8429 5.84344 56.3431 4.34315C57.8434 2.84285 59.8783 2 62 2C64.1217 2 66.1566 2.84285 67.6569 4.34315C69.1571 5.84344 70 7.87827 70 10Z" stroke="#4FAA4B" stroke-linecap="round" stroke-linejoin="round"/>
<path d="M62 13C63.6569 13 65 11.6569 65 10C65 8.34315 63.6569 7 62 7C60.3431 7 59 8.34315 59 10C59 11.6569 60.3431 13 62 13Z" stroke="#CCCCCC" stroke-linecap="round" stroke-linejoin="round"/>
<path d="M50.1938 37.4153C51.1161 34.9172 51.6663 32.3648 51.6663 29.8332C51.6663 24.352 49.489 19.0954 45.6132 15.2196C41.7375 11.3439 36.4808 9.1665 30.9997 9.1665C25.5185 9.1665 20.2619 11.3439 16.3861 15.2196C12.5104 19.0954 10.333 24.352 10.333 29.8332C10.333 42.7318 24.6421 56.1651 29.4471 60.3139C29.8947 60.6505 30.4396 60.8325 30.9997 60.8325C31.5597 60.8325 32.1046 60.6505 32.5523 60.3139C33.2629 59.6989 33.9631 59.072 34.6525 58.4333M41.333 50.4998L46.4997 55.6665L56.833 45.3332" stroke="#4FAA4B" stroke-linecap="round" stroke-linejoin="round"/>
<path d="M31 37.5835C35.2802 37.5835 38.75 34.1137 38.75 29.8335C38.75 25.5533 35.2802 22.0835 31 22.0835C26.7198 22.0835 23.25 25.5533 23.25 29.8335C23.25 34.1137 26.7198 37.5835 31 37.5835Z" stroke="#CCCCCC" stroke-linecap="round" stroke-linejoin="round"/>
</svg>
