<svg width="14" height="16" viewBox="0 0 14 16" fill="none" xmlns="http://www.w3.org/2000/svg">
<path d="M13 14.8999V13.3443C13 12.5192 12.6388 11.7279 11.9958 11.1445C11.3528 10.561 10.4807 10.2332 9.57143 10.2332H4.42857C3.51926 10.2332 2.64719 10.561 2.00421 11.1445C1.36122 11.7279 1 12.5192 1 13.3443V14.8999" fill="#5AB356"/>
<path d="M7 7.12212C8.89355 7.12212 10.4286 5.72923 10.4286 4.01101C10.4286 2.29279 8.89355 0.899902 7 0.899902C5.10645 0.899902 3.57143 2.29279 3.57143 4.01101C3.57143 5.72923 5.10645 7.12212 7 7.12212Z" fill="#5AB356"/>
<path d="M13 14.8999V13.3443C13 12.5192 12.6388 11.7279 11.9958 11.1445C11.3528 10.561 10.4807 10.2332 9.57143 10.2332H4.42857C3.51926 10.2332 2.64719 10.561 2.00421 11.1445C1.36122 11.7279 1 12.5192 1 13.3443V14.8999M10.4286 4.01101C10.4286 5.72923 8.89355 7.12212 7 7.12212C5.10645 7.12212 3.57143 5.72923 3.57143 4.01101C3.57143 2.29279 5.10645 0.899902 7 0.899902C8.89355 0.899902 10.4286 2.29279 10.4286 4.01101Z" stroke="#5AB356" stroke-linejoin="round"/>
</svg>
