<svg width="26" height="26" viewBox="0 0 26 26" fill="none" xmlns="http://www.w3.org/2000/svg">
<path fill-rule="evenodd" clip-rule="evenodd" d="M0 13C0 20.1797 5.8203 26 13 26C20.1797 26 26 20.1797 26 13C26 5.8203 20.1797 0 13 0C5.8203 0 0 5.8203 0 13ZM10.6179 18.9581L10.8391 15.6444L10.8389 15.6442L16.8671 10.2043C17.1316 9.96947 16.8093 9.85497 16.4581 10.0679L9.01853 14.7615L5.80503 13.7585C5.11106 13.546 5.10608 13.0691 5.96084 12.7263L18.4831 7.89777C19.055 7.63812 19.607 8.03514 19.3887 8.9105L17.2561 18.9598C17.1072 19.6739 16.6758 19.8447 16.0779 19.5149L12.8294 17.1148L11.2679 18.6331C11.263 18.6379 11.2581 18.6427 11.2532 18.6474C11.0786 18.8175 10.9341 18.9581 10.6179 18.9581Z" fill="#4FAA4B"/>
</svg>
