<svg width="26" height="26" viewBox="0 0 26 26" fill="none" xmlns="http://www.w3.org/2000/svg">
<path fill-rule="evenodd" clip-rule="evenodd" d="M13 0C5.8203 0 0 5.8203 0 13C0 20.1797 5.8203 26 13 26C20.1797 26 26 20.1797 26 13C26 5.8203 20.1797 0 13 0ZM14.0582 17.1036C13.93 17.2388 13.6798 17.2661 13.6798 17.2661H12.851C12.851 17.2661 11.0225 17.3739 9.41175 15.7282C7.65516 13.9327 6.10407 10.3704 6.10407 10.3704C6.10407 10.3704 6.01455 10.1367 6.11153 10.0242C6.22073 9.89703 6.51847 9.88904 6.51847 9.88904L8.49954 9.87639C8.49954 9.87639 8.68605 9.90635 8.81966 10.0029C8.93021 10.0828 8.99193 10.2312 8.99193 10.2312C8.99193 10.2312 9.31205 11.0261 9.73594 11.7451C10.564 13.1492 10.9493 13.4561 11.2301 13.3056C11.6397 13.0866 11.5169 11.321 11.5169 11.321C11.5169 11.321 11.5244 10.6806 11.3108 10.395C11.1453 10.174 10.8333 10.1094 10.6956 10.0914C10.5837 10.0768 10.7668 9.82247 11.0042 9.70863C11.361 9.53753 11.9903 9.52755 12.7343 9.53487C13.3142 9.54086 13.4811 9.57614 13.7076 9.63007C14.2333 9.7546 14.2169 10.1537 14.1815 11.015C14.1709 11.2726 14.1586 11.5716 14.1586 11.9169C14.1586 11.9945 14.1563 12.0772 14.1539 12.1623C14.1416 12.6036 14.1276 13.1089 14.4238 13.297C14.5757 13.3928 14.9467 13.3109 15.8752 11.7638C16.3153 11.0301 16.645 10.168 16.645 10.168C16.645 10.168 16.7175 10.0142 16.8294 9.94829C16.9441 9.88105 17.0987 9.90169 17.0987 9.90169L19.1835 9.88904C19.1835 9.88904 19.8102 9.81514 19.9113 10.0934C20.0177 10.3843 19.6773 11.0647 18.8254 12.1792C18.0174 13.2366 17.6241 13.6259 17.6602 13.9703C17.6866 14.2219 17.9422 14.4494 18.4327 14.8961C19.4567 15.8293 19.7312 16.3202 19.7971 16.4382C19.8026 16.448 19.8066 16.4552 19.8095 16.4599C20.2687 17.2075 19.3002 17.2661 19.3002 17.2661L17.448 17.2914C17.448 17.2914 17.0505 17.3686 16.5269 17.0158C16.2527 16.8311 15.9847 16.5295 15.7294 16.2422C15.3395 15.8034 14.9794 15.3981 14.672 15.4939C14.1559 15.655 14.1715 16.7461 14.1715 16.7461C14.1715 16.7461 14.1756 16.9798 14.0582 17.1036Z" fill="#4FAA4B"/>
</svg>
