<svg width="48" height="48" viewBox="0 0 48 48" fill="none" xmlns="http://www.w3.org/2000/svg">
<path d="M0.5 4C0.5 2.067 2.067 0.5 4 0.5H44C45.933 0.5 47.5 2.067 47.5 4V44C47.5 45.933 45.933 47.5 44 47.5H4C2.067 47.5 0.5 45.933 0.5 44V4Z" stroke="#4FAA4B"/>
<path d="M15 35V27.7388H16.2104C16.6226 27.4445 17 27.0291 17.3425 26.4925C17.6851 25.9502 17.9782 25.203 18.2221 24.251C18.4659 23.2932 18.6401 22.0412 18.7446 20.4949L19.2496 13H31.0493V27.7388H33V34.9827H29.3774V30.7246H18.6226V35H15ZM20.5646 27.7388H27.4267V16.0897H22.6459L22.3672 20.4949C22.2917 21.6661 22.1669 22.7047 21.9927 23.6105C21.8244 24.5164 21.6183 25.3097 21.3745 25.9906C21.1364 26.6656 20.8665 27.2484 20.5646 27.7388Z" fill="#010101" fill-opacity="0.2"/>
</svg>
